<svg width="156" height="51" viewBox="0 0 156 51" fill="none" xmlns="http://www.w3.org/2000/svg">
<path d="M1.6 39L17.4 1.35H17.7L33.45 39H27.9L16.1 8.95L19.55 6.7L6.35 39H1.6ZM10.85 25.3H24.3L25.9 29.5H9.45L10.85 25.3ZM44.9086 39.4C43.4419 39.4 42.0086 39.15 40.6086 38.65C39.2419 38.1167 38.1086 37.3333 37.2086 36.3L39.1586 33.6C40.0253 34.4333 40.9086 35.0667 41.8086 35.5C42.7419 35.9 43.6586 36.1 44.5586 36.1C45.2253 36.1 45.8419 36.0167 46.4086 35.85C46.9753 35.6833 47.4253 35.4167 47.7586 35.05C48.1253 34.65 48.3086 34.1167 48.3086 33.45C48.3086 32.7167 48.0586 32.1333 47.5586 31.7C47.0919 31.2667 46.4753 30.9167 45.7086 30.65C44.9753 30.3833 44.1919 30.1333 43.3586 29.9C41.6586 29.3333 40.3586 28.55 39.4586 27.55C38.5586 26.55 38.1086 25.3333 38.1086 23.9C38.1086 22.8 38.3753 21.7833 38.9086 20.85C39.4753 19.8833 40.2919 19.1 41.3586 18.5C42.4586 17.9 43.8086 17.6 45.4086 17.6C46.8419 17.6 48.1253 17.7833 49.2586 18.15C50.3919 18.4833 51.4586 19.05 52.4586 19.85L50.6086 22.75C50.0086 22.1167 49.2919 21.65 48.4586 21.35C47.6253 21.05 46.8753 20.8833 46.2086 20.85C45.6419 20.8167 45.0919 20.9 44.5586 21.1C44.0586 21.3 43.6419 21.5833 43.3086 21.95C42.9753 22.3167 42.8086 22.75 42.8086 23.25C42.8086 23.95 43.0419 24.5167 43.5086 24.95C43.9753 25.3833 44.5753 25.7333 45.3086 26C46.0753 26.2333 46.8253 26.4833 47.5586 26.75C48.5919 27.05 49.5086 27.45 50.3086 27.95C51.1086 28.45 51.7419 29.0667 52.2086 29.8C52.7086 30.5333 52.9586 31.45 52.9586 32.55C52.9586 33.7833 52.6586 34.9333 52.0586 36C51.4919 37.0333 50.6086 37.8667 49.4086 38.5C48.2419 39.1 46.7419 39.4 44.9086 39.4ZM69.0699 39.5C66.7033 39.5 64.6699 39.0333 62.9699 38.1C61.2699 37.1333 59.9533 35.8333 59.0199 34.2C58.1199 32.5333 57.6699 30.6333 57.6699 28.5C57.6699 26.4667 58.1866 24.6167 59.2199 22.95C60.2533 21.2833 61.6366 19.95 63.3699 18.95C65.1033 17.95 67.0366 17.45 69.1699 17.45C71.9033 17.45 74.1699 18.25 75.9699 19.85C77.7699 21.45 78.9866 23.65 79.6199 26.45L62.5699 32.45L61.4699 29.7L75.4699 24.6L74.4699 25.25C74.0699 24.15 73.4033 23.2 72.4699 22.4C71.5366 21.5667 70.3199 21.15 68.8199 21.15C67.5533 21.15 66.4199 21.4667 65.4199 22.1C64.4199 22.7 63.6366 23.5333 63.0699 24.6C62.5033 25.6667 62.2199 26.8833 62.2199 28.25C62.2199 29.6833 62.5199 30.95 63.1199 32.05C63.7199 33.1167 64.5366 33.9667 65.5699 34.6C66.6366 35.2 67.8366 35.5 69.1699 35.5C70.0699 35.5 70.9366 35.3333 71.7699 35C72.6366 34.6667 73.4366 34.2333 74.1699 33.7L76.3199 37.15C75.2866 37.85 74.1199 38.4167 72.8199 38.85C71.5533 39.2833 70.3033 39.5 69.0699 39.5ZM87.1465 39V22.45H83.5965V18.3H87.1465V9.55C87.1465 6.55 87.8132 4.25 89.1465 2.65C90.5132 1.05 92.5132 0.249998 95.1465 0.249998C95.8465 0.249998 96.6132 0.349998 97.4465 0.549997C98.3132 0.749999 99.0632 1.08333 99.6965 1.55L97.7465 4.9C97.4465 4.6 97.1132 4.4 96.7465 4.3C96.3798 4.16667 96.0132 4.1 95.6465 4.1C94.4132 4.1 93.4632 4.51667 92.7965 5.35C92.1298 6.18333 91.7965 7.6 91.7965 9.6V18.3H98.3465V22.45H91.7965V39H87.1465ZM108.542 18.3L108.992 24.3L108.742 23.5C109.275 22.2333 110.042 21.1667 111.042 20.3C112.075 19.4 113.142 18.7167 114.242 18.25C115.375 17.75 116.358 17.5 117.192 17.5L116.942 22.1C115.375 22 113.992 22.3 112.792 23C111.625 23.7 110.692 24.6333 109.992 25.8C109.325 26.9667 108.992 28.2167 108.992 29.55V39H104.392V18.3H108.542ZM129.741 39.8C127.874 39.8 126.324 39.2333 125.091 38.1C123.891 36.9333 123.257 35.4333 123.191 33.6V18.3H127.841V31.95C127.907 33.0833 128.224 34 128.791 34.7C129.391 35.4 130.324 35.7667 131.591 35.8C132.757 35.8 133.791 35.4667 134.691 34.8C135.624 34.1 136.374 33.1667 136.941 32C137.507 30.8 137.791 29.45 137.791 27.95V18.3H142.441V39H138.191L137.791 33.9L138.041 34.8C137.641 35.7667 137.024 36.6333 136.191 37.4C135.391 38.1333 134.441 38.7167 133.341 39.15C132.241 39.5833 131.041 39.8 129.741 39.8Z" fill="white"/>
<path d="M148 19.0003C151 19.0003 155 18.0003 155 11.0003V3.00028C155 1.75028 154.243 0.983277 153 1.00028H149C147.75 1.00028 147 1.75028 147 2.97228V9.00028C147 10.2503 147.75 11.0003 149 11.0003H149.75C149.75 13.2503 150 15.0003 147 15.0003V18.0003C147 19.0003 147 19.0003 148 19.0003Z" stroke="white" stroke-width="2" stroke-linecap="round" stroke-linejoin="round"/>
</svg>
